<svg xmlns="http://www.w3.org/2000/svg" viewBox="0 0 24 24"><path fill="#4caf50" d="m12.5074514 0c6.3088982 0 11.4381354 5.07389615 11.4381354 11.3116337 0 6.2364807-5.1292372 11.3116337-11.4381354 11.3116337-2.3262711 0-4.48474568-.6849822-6.29364395-1.8701901l-5.66822025 2.6469223 2.6961864-5.4584917c-1.37161015-1.862649-2.17754234-4.1563969-2.17754234-6.6298742 0-6.2389944 5.1292372-11.3116337 11.43813544-11.3116337zm6.6572033 15.9720268c.2758474-.7717048.2758474-1.4290364.1957627-1.5685465-.0813559-.140767-.3025424-.2199485-.6394068-.3858524-.3355932-.165904-1.9703389-.9652594-2.2792372-1.0708347-.3025424-.1131163-.5923729-.0728972-.8211864.2463423-.3216102.4449242-.6368644.8973896-.8936441 1.1713825-.2008475.2111505-.5300847.2375443-.8059322.1244279-.3711864-.1520786-1.4059322-.5115372-2.6834745-1.6351595-.9889831-.8709957-1.66144067-1.9556557-1.85593219-2.2799226-.19449153-.3330647-.02033899-.5253625.13474576-.7050918.1677966-.20612311.32796609-.35317435.49703393-.54547212.1690677-.19229777.2631355-.29284563.3711864-.5190783.1144068-.21869159.0317797-.44492426-.0495763-.61208507-.0800847-.16716081-.75127115-1.78975183-1.02838979-2.44708343-.22118644-.52536254-.39025423-.54547211-.72584745-.55929744-.11440678-.00628425-.24152542-.01256849-.3838983-.01256849-.43728813 0-.89364405.12694167-1.1694915.40596197-.33559322.33934901-1.16949151 1.12990652-1.16949151 2.75249754 0 1.62384786 1.19745761 3.19239444 1.35889828 3.41234284.16779661.2186916 2.33389827 3.5970995 5.69618637 4.9733483 2.6275423 1.0783757 3.409322.9778279 4.0067796.8521431.873305-.1872704 1.9690677-.8257493 2.2449152-1.5974541z"/></svg>