<svg xmlns="http://www.w3.org/2000/svg" viewBox="0 0 23 24"><path fill="#665cac" d="m13.4748652 1.03601962c1.2282388.16126933 2.2203332.46940896 3.3089013 1.02377231 1.0712892.54572391 1.7566838 1.06120983 2.6623839 2.00290757.8509838.88986116 1.3203927 1.56085679 1.8214796 2.60478777.695474 1.46150337 1.0914478 3.190829 1.1591233 5.09870283.0259183.6508371.0071995.7962674-.1353511.983455-.2707021.3585363-.8668226.3009402-1.0712891-.1065529-.0633558-.1310314-.0820746-.2491035-.1036732-.7660294-.0345576-.800587-.0892741-1.3175128-.195827-1.935232-.4204521-2.41904008-1.5349385-4.35427213-3.311781-5.74234034-1.481662-1.15912337-3.0122808-1.72356605-5.0180682-1.84451805-.6781952-.04319714-.7962674-.07199524-.9503372-.19150734-.2851011-.23470448-.2995002-.78474811-.0244784-1.04105117.167029-.15982943.2851012-.18142799.8668227-.16126933.30382.01007933.7501904.04463705.9920944.07487505zm-8.15850053.40029353c.12527172.04463705.31821896.15262991.42765173.22318524.67819515.47084887 2.56735024 2.98780246 3.1836295 4.24483934.35421657.71419277.47228877 1.24695755.3614161 1.64293137-.11375248.42189211-.30381992.64651725-1.14904403 1.35639032-.33981753.28798095-.65659658.57884172-.70699326.65803649-.12815152.195827-.23182466.57308209-.23182466.84378419.00287981.6162792.38877429 1.7437247.89562078 2.6105474.3916541.6709956 1.09576755 1.5363784 1.79124156 2.1972947.81786591.7789886 1.53925831 1.3131932 2.35280451 1.7322054 1.0453708.5414043 1.6846885.6839548 2.1512177.45501.1180721-.0532764.2433439-.1310313.2822213-.165589.0359977-.030238.3110194-.3830147.6105196-.7674693.5788418-.7573899.7098731-.8826616 1.1058469-1.0237723.5039667-.1771083 1.0180127-.1310313 1.5349385.1468702.3930941.2116661 1.2498374.7645896 1.8027609 1.1677629.7285918.5313248 2.2851289 1.8545974 2.4953549 2.11666.3714955.4780484.4348513 1.0871281.1857478 1.7595636-.2649425.7098731-1.2930346 2.0417851-2.0101071 2.6105475-.6493971.5111661-1.1101666.7098731-1.7163665.740111-.499647.0259183-.7069933-.0187188-1.3463111-.2923007-5.0108686-2.1569773-9.01236401-5.3665252-12.18879399-9.7798334-1.65877033-2.3052875-2.92300673-4.69552944-3.78694961-7.17792531-.50252677-1.44566441-.52700515-2.0763427-.11375248-2.81213406.1785482-.31245934.93881793-1.08568821 1.49174137-1.51765966.92153907-.71563267 1.34631098-.97913525 1.6846886-1.05257039.23182468-.04895677.63499803-.01007934.89274098.08351447zm8.40472423 2.29664815c2.1670567.3297382 3.8445458 1.37942879 4.9431932 3.08139626.6177191.95897659 1.0036136 2.08642205 1.1360849 3.29594214.046077.4406108.046077 1.2483974-.0043197 1.3823085-.046077.1267117-.1958271.2980603-.3239786.3671757-.1396708.0734352-.4362912.0662356-.6004403-.0230384-.2750218-.1454304-.3556565-.3743752-.3556565-.999294 0-.9647362-.2404641-1.97698923-.6537168-2.76605706-.4708488-.89850059-1.1562435-1.64293137-1.9913883-2.16129709-.7185125-.4478104-1.7782824-.77610868-2.7458984-.85674336-.348457-.03023799-.5414042-.10655295-.6738755-.26638238-.2030266-.24190401-.2246252-.5702023-.0532764-.8394645.1857477-.2995002.4708488-.34845696 1.3232724-.21454581zm.7602698 2.80781435c.7041135.15406981 1.2426379.43341134 1.7034073.88410154.5918009.58460135.9172194 1.2915946 1.05977 2.30528754.0964736.66091637.0575962.92297907-.167029 1.13608487-.211666.2001468-.6004403.2102262-.8351447.0172789-.1713488-.1310313-.2260651-.2735819-.2649425-.6565966-.0460769-.50540653-.1324713-.86394285-.2779016-1.19512096-.3153392-.70267354-.8682627-1.06696946-1.8027609-1.18792145-.4391709-.05615629-.5716421-.10655296-.7141927-.28366125-.2606228-.31965886-.1598295-.84522411.2001467-1.04105117.1353511-.06911542.1929473-.07631495.4924474-.05759619.1857478.01295915.4607696.04319715.6062.07919477z"/></svg>