<svg xmlns="http://www.w3.org/2000/svg" viewBox="0 0 24 24"><path fill="#01a6ff" d="m12 .00282353c6.4856471-.12705882 11.8517647 5.01458823 12 11.49882357-.1482353 6.4842353-5.5143529 11.6258823-12 11.4988235-1.5204706.0028235-3.02823529-.2738824-4.44847059-.8174118l-2.78682353 1.7407059c-.07905882.0494118-.17082353.0762353-.26541176.0762353-.27529412 0-.49976471-.2244706-.49976471-.4997647v-3.4404706c-2.52141176-2.1303529-3.98258823-5.2574118-3.99952941-8.5581176.14823529-6.48423534 5.51435294-11.62588239 12-11.49882357zm7.8564706 8.85176471c.1750588-.17647059.1934118-.45458824.0437647-.6522353-.1496471-.19905882-.4221177-.2597647-.6409412-.1397647l-5.1995294 2.83482356-3.2343529-2.77411768c-.1990589-.17082353-.4941177-.15952941-.6790589.02541176l-5.99999996 6.00000002c-.19482353.1948235-.19341176.5124706.00141177.7072941.15670588.1552941.39670588.1891765.59152941.0847059l5.19952941-2.8348235 3.23858827 2.7741176c.197647.1708235.4941176.1595294.6790588-.0254118z"/></svg>