<svg xmlns="http://www.w3.org/2000/svg" viewBox="0 0 24 20"><path fill="#4a90e2" d="m18.384 19.779c-2.026-1.443-5.598-4.062-5.598-4.062s-1.88 1.775-3.096 2.923c-.215.203-.523.282-.811.207-.289-.076-.508-.296-.603-.576-.757-2.23-2.209-6.615-2.209-6.615s-3.107-.985-5.474-1.693c-.343-.103-.581-.41-.593-.764-.011-.353.207-.675.542-.799 5.278-1.953 18.191-6.798 22.384-8.35.272-.101.577-.047.797.14s.32.478.26.758c-.791 3.715-2.899 14.052-3.768 18.136-.082.383-.354.699-.724.84-.37.14-.785.083-1.107-.145zm-11.01-8.677 1.679 5.538.373-3.507s6.487-5.851 10.185-9.186c.108-.098.123-.262.033-.377-.089-.115-.253-.142-.376-.064-4.286 2.737-11.894 7.596-11.894 7.596z"/></svg>