<svg xmlns="http://www.w3.org/2000/svg" viewBox="0 0 28 24"><path fill="#03a9f4" d="m27.4871795 2.87179487c-1.025641.41025641-2.0512821.82051282-3.2820513 1.02564103 1.2307692-.82051282 2.0512821-1.84615385 2.4615385-3.28205128-1.0256411.61538461-2.2564103 1.23076923-3.4871795 1.43589743-1.025641-1.23076923-2.4615385-2.05128205-4.1025641-2.05128205-3.0769231 0-5.7435898 2.66666667-5.7435898 6.15384615 0 .41025641 0 1.02564103.2051282 1.43589744-4.71794868-.41025641-8.82051278-2.87179487-11.69230765-6.56410256-.41025641 1.02564102-.61538462 2.05128205-.61538462 3.07692307 0 2.05128205 1.02564103 3.8974359 2.46153846 5.12820513-1.02564102 0-1.84615384-.2051282-2.46153846-.82051282 0 2.87179489 1.84615385 5.33333329 4.51282051 5.94871799-.61538461.2051282-1.02564102.2051282-1.64102564.2051282-.41025641 0-.61538461 0-1.02564102-.2051282.61538461 2.4615384 2.87179487 4.1025641 5.33333333 4.3076923-2.05128205 1.6410256-4.30769231 2.6666666-6.97435897 2.6666666-.41025641 0-.82051282 0-1.43589744 0 2.46153846 1.6410257 5.53846154 2.6666667 8.61538462 2.6666667 10.25641028 0 15.99999998-9.2307692 15.99999998-17.23076923 0-.20512821 0-.61538462 0-.82051282 1.025641-.82051282 2.0512821-1.84615385 2.8717949-3.07692308z"/></svg>