<svg xmlns="http://www.w3.org/2000/svg" viewBox="0 0 143 20"><path fill="#000" d="m0.82494 17.801v-17.777h2.3148v17.777h2.5423v-17.801h2.3366v10.607c0.84779 0.32104 1.0992 0.43532 1.5356 0.75636 1.0525 0.75532 1.6717 2.1309 1.6717 3.6883 0 1.5345-0.57247 2.8634-1.5356 3.7569-0.91636 0.87065-1.9699 1.1917-4.0769 1.1917h-5.6135v-2.1995zm25.598 0.28395c-2.6691 0-4.3377-1.5127-4.3377-3.9595v-5.226h-2.6244v-0.66701l5.094-5.5387h0.75636v3.3579h4.3813v2.8478h-4.3813v4.9371c0 0.93506 0.37818 1.3797 1.1782 1.3797 1.1127 0 1.2021-0.97974 1.2021-1.2904v-0.91221h3.2239v1.0234c0 1.1792-0.42182 2.1797-1.201 2.9132-0.80104 0.73455-1.9574 1.1345-3.2914 1.1345zm10.147-0.22213h-3.2478v-17.171h3.2478v6.4945c0.77818-0.84468 1.8452-1.3569 3.2249-1.3569 1.1564 0 2.2244 0.46753 3.0026 1.2686 0.80104 0.82286 1.2239 1.9345 1.2239 3.1356v7.6291h-3.2706v-6.8509c0-1.334-0.82286-2.2462-2.0239-2.2462-1.3558 0-2.1569 1.2229-2.1569 2.4021zm21.228-3.8256v0.021818c-0.13403 1.2686-0.84571 2.2691-1.7797 2.9808-0.93506 0.68987-2.2016 1.0452-3.6478 1.0452-1.8016 0-3.2706-0.60052-4.3148-1.7132-0.97974-1.0888-1.5127-2.6234-1.5127-4.4249 0-0.89039 0.13299-1.7132 0.42286-2.4696 0.24416-0.73351 0.64416-1.4005 1.1345-1.9356 1.0442-1.1335 2.4904-1.734 4.1808-1.734 0.95688 0 1.8452 0.17766 2.6026 0.53403 0.68883 0.33351 1.2894 0.8 1.7797 1.4005 0.44468 0.55584 0.77818 1.2457 1.0223 2.0021 0.20052 0.71169 0.31169 1.4909 0.31169 2.2909v0.86753h-8.0966c0.044675 0.62234 0.26701 1.1792 0.66805 1.5792 0.44364 0.44468 1.067 0.68987 1.8016 0.68987 1.0452 0 1.8234-0.35636 2.0239-1.1345zm-7.8971-3.3808h4.8042c-0.088312-0.9787-0.8-1.8909-2.4239-1.8909-1.5127 0-2.2691 0.91221-2.3803 1.8909zm38.808 4.5926v2.7969c-0.25039 0.038442-0.51325 0.061299-0.79273 0.061299-1.9117 0-3.0691-0.93403-3.6696-1.9574-0.62234 0.86753-1.8005 1.9356-3.6696 1.9356h-0.17766c-1.6239 0-2.959-0.64519-3.893-1.8016-0.86753-1.0899-1.3122-2.6026-1.3122-4.4042 0-1.7569 0.44468-3.2696 1.3122-4.3595 0.91221-1.1564 2.2473-1.7569 3.8265-1.7569h0.24416c0.77818 0.044675 1.4681 0.20052 2.0686 0.53299 0.55584 0.28987 1.0234 0.68987 1.4234 1.2239l2.0021-1.7122h0.62338v7.6281c0 0.86753 0.46649 1.9356 1.4234 1.9356 0.21818 0 0.41455-0.044675 0.59117-0.1226zm-5.841-1.0784c0.35636-0.55584 0.53403-1.3351 0.53403-2.2909 0-0.93403-0.20052-1.7132-0.60052-2.2691-0.42286-0.60052-1.0234-0.91221-1.8016-0.91221-1.7351 0-2.5143 1.6021-2.5143 3.1813 0 1.4899 0.66805 3.2468 2.5143 3.2468 0.84571 0 1.467-0.33247 1.8681-0.95584zm-14.789 3.6919h-6.8281v-17.193h10.543v3.1803h-7.0068v2.9579h3.6925c2.8696 0 4.9382 2.6244 4.9382 5.5387 0 3.0255-2.3138 5.5158-5.3392 5.5158zm-0.28883-7.8514h-3.0244v4.6483h3.0244c1.1792 0 2.0021-1.201 2.0021-2.3127 0-1.1564-0.86753-2.3356-2.0021-2.3356zm32.833-2.1353c0.95584 1.3351 1.1792 2.9808 1.1792 4.1371 0 1.8234-0.55584 3.359-1.5803 4.426-1.0223 1.0899-2.4904 1.6457-4.2473 1.6457-0.84571 0-1.6239-0.15481-2.3584-0.44364-0.71169-0.28987-1.3122-0.71273-1.8452-1.2686-0.51221-0.55584-0.91221-1.201-1.1792-1.9574-0.26701-0.75636-0.42286-1.5792-0.42286-2.4686v-5.0494c0-0.64416 0.13403-1.3558 0.37818-2.0468 0.26701-0.73351 0.66701-1.4234 1.1345-2.0229 0.53299-0.64519 1.1564-1.1792 1.8691-1.5356 0.77818-0.4 1.6457-0.62234 2.5787-0.62234h4.427v3.2914h-3.7371c-2.7127 0-3.6696 1.7351-3.6696 3.359v0.15584c0.28883-0.33351 0.66701-0.64519 1.0899-0.89039 0.71169-0.37714 1.5345-0.60052 2.3803-0.60052 0.88935 0 1.6904 0.1787 2.3792 0.53403 0.64519 0.31169 1.1782 0.77818 1.6239 1.3569zm-2.1579 4.1371c0-1.8909-0.91221-3.0026-2.4904-3.0026-1.5356 0-2.4914 1.5792-2.4914 3.0473 0 1.5127 0.64416 3.1138 2.4914 3.1138 0.86753 0 1.5127-0.31169 1.9345-0.93403 0.35636-0.53403 0.55584-1.2904 0.55584-2.2244zm16.582 2.0242v0.021818c-0.13403 1.2686-0.84572 2.2691-1.7797 2.9808-0.93506 0.68987-2.2016 1.0452-3.6478 1.0452-1.8016 0-3.2696-0.60052-4.3148-1.7132-0.9787-1.0888-1.5127-2.6234-1.5127-4.4249 0-0.89039 0.13403-1.7132 0.42286-2.4696 0.24416-0.73351 0.6452-1.4005 1.1345-1.9356 1.0442-1.1335 2.4904-1.734 4.1808-1.734 0.95688 0 1.8462 0.17766 2.6026 0.53403 0.68987 0.33351 1.2904 0.8 1.7797 1.4005 0.44468 0.55584 0.77818 1.2457 1.0223 2.0021 0.20156 0.71169 0.31169 1.4909 0.31169 2.2909v0.86753h-8.0956c0.043636 0.62234 0.26701 1.1792 0.66701 1.5792 0.44468 0.44468 1.0681 0.68987 1.8016 0.68987 1.0452 0 1.8244-0.35636 2.0239-1.1345zm-7.8961-3.3808h4.8042c-0.089351-0.9787-0.8-1.8909-2.4249-1.8909-1.5117 0-2.2691 0.91221-2.3792 1.8909zm22.267-4.6043v11.811h-3.2468v-8.853h-2.5351c-0.044675 0.24519-0.44571 3.4255-0.7574 4.7823-0.60052 2.6026-0.93299 4.293-4.1361 4.293l-1.9356-2.8031v-0.71169h2.4239c0.93506-2.8021 1.7351-8.5184 1.7351-8.5184zm13.11 7.4062v0.28987c0 1.0899-0.4 2.1122-1.1782 2.8914-0.75636 0.77818-1.7797 1.2229-2.8696 1.2229h-5.8047v-11.81h3.2686v3.4909h2.5143c1.1117 0 2.1351 0.40104 2.8914 1.1345 0.77818 0.71169 1.1782 1.7132 1.1782 2.7803zm-6.5839 1.5127h2.0021c0.91221 0 1.3122-0.75636 1.3122-1.2904 0-0.22234-0.066494-1.3558-1.3122-1.3558h-2.0021z"/></svg>